<!-- Generated by IcoMoon.io -->
<svg version="1.1" xmlns="http://www.w3.org/2000/svg" width="64" height="64" viewBox="0 0 64 64">
<title>Label</title>
<path d="M21.894 15.084c-1.121 0.343-2.515 0.811-5.96 2.001-1.896 0.655-4.204 1.444-5.131 1.753s-1.906 0.653-2.177 0.763l-0.492 0.201-0.041 0.618c-0.063 0.959-0.022 4.631 0.053 4.803 0.079 0.181 0.075 0.181 0.928-0.062 0.395-0.113 2.105-0.577 3.801-1.032s4.121-1.108 5.39-1.452 2.796-0.75 3.395-0.904l1.088-0.279 0.027-6.597-0.143 0.002c-0.079 0.001-0.411 0.084-0.739 0.185zM22.831 18.217l-0.003 3.268 0.246-0.035c0.323-0.045 1.609-0.309 2.282-0.467l0.533-0.125 2.447 1.796c2.807 2.061 4.857 3.59 5.465 4.077 0.531 0.425 0.634 0.483 0.693 0.389 0.154-0.243-0.078-2.735-0.272-2.919-0.562-0.534-6.915-5.938-7.528-6.405-0.433-0.33-1.141-0.894-1.573-1.254-1.187-0.989-2.030-1.593-2.222-1.593-0.051 0-0.065 0.699-0.067 3.268zM24.692 21.786c-2.468 0.666-4.69 1.239-12.769 3.295-2.534 0.645-5.207 1.327-5.941 1.517l-1.335 0.345-0.032 1.764c-0.072 3.906-0.191 15.537-0.159 15.568 0.076 0.076 7.233 0.112 12.23 0.061 2.907-0.030 6.074-0.054 7.036-0.053l1.749 0-0-8.901c-0.001-9.991-0.055-13.755-0.198-13.745-0.019 0.002-0.279 0.069-0.578 0.149zM26.040 24.839c0 1.535 0.015 6.537 0.035 11.117l0.035 8.327h12.853l-0.035-4.781c-0.019-2.63-0.035-5.508-0.035-6.397v-1.616l-0.687-0.511c-0.378-0.281-2.155-1.595-3.95-2.919s-4.36-3.217-5.701-4.207-2.456-1.8-2.477-1.801c-0.021-0-0.039 1.255-0.039 2.789zM49.551 27.439c-0.018 0.185-0.057 0.675-0.087 1.088-0.099 1.374-0.14 1.476-0.613 1.531-0.161 0.019-0.386 0.081-0.5 0.139s-0.368 0.123-0.563 0.145c-0.53 0.059-0.572 0.119-0.594 0.83-0.023 0.726 0.062 1.253 0.23 1.434 0.069 0.074 0.124 0.178 0.124 0.23s0.035 0.096 0.078 0.096c0.043 0 0.078 0.023 0.078 0.051s0.059 0.066 0.131 0.084c0.072 0.018 0.154 0.077 0.183 0.13s0.076 0.098 0.105 0.098 0.115 0.059 0.192 0.131c0.077 0.072 0.193 0.145 0.257 0.161s0.117 0.062 0.117 0.102 0.047 0.072 0.104 0.072c0.057 0 0.104 0.032 0.104 0.071s0.070 0.085 0.155 0.102c0.091 0.018 0.156 0.064 0.156 0.11 0 0.044 0.035 0.079 0.078 0.079s0.078 0.035 0.078 0.078c0 0.043 0.046 0.078 0.104 0.078s0.104 0.032 0.104 0.072 0.056 0.086 0.124 0.103c0.172 0.043 0.189 0.152 0.181 1.195-0.008 1.032-0.005 1.041 0.459 1.251 0.12 0.055 0.22 0.129 0.22 0.164 0.001 0.037 0.068 0.065 0.158 0.065 0.092 0 0.169 0.032 0.187 0.078 0.017 0.043 0.062 0.078 0.102 0.078s0.121 0.049 0.18 0.108c0.304 0.304 0.371-0.279 0.467-4.047 0.047-1.82 0.079-2.447 0.132-2.561 0.039-0.083 0.074-0.258 0.078-0.389 0.042-1.439 0.251 5.070 0.252 7.847 0 0.969 0.016 2.724 0.035 3.9l0.034 2.138h1.642v-12.529l-0.511-0.675c-0.959-1.266-1.344-1.623-1.423-1.321-0.018 0.069-0.025 0.063-0.029-0.025-0.011-0.206-0.498-0.22-1.362-0.038-0.634 0.134-0.644 0.126-0.686-0.561-0.019-0.32-0.057-0.732-0.084-0.918s-0.051-0.465-0.054-0.622c-0.008-0.456-0.080-0.551-0.119-0.155zM44.62 32.312c-0.2 0.054-0.946 0.294-1.659 0.532l-1.296 0.433-0.028 2.278 0.998 0.641c1.133 0.727 1.742 1.156 2.019 1.423 0.105 0.101 0.227 0.184 0.272 0.184s0.081 0.035 0.081 0.078c0 0.058 0.060 0.078 0.233 0.078h0.233v-2.795c0-3.337 0.070-3.105-0.855-2.852zM45.825 32.454l-0.143 0.088v5.147c0 4.48 0.010 5.167 0.078 5.298 0.043 0.083 0.103 0.329 0.133 0.548 0.121 0.871 0.257 0.907 2.912 0.776l0.868-0.043v-4.786c0-5.143 0.008-4.995-0.246-4.995-0.037 0-0.081-0.035-0.098-0.078s-0.063-0.078-0.102-0.078-0.072-0.035-0.072-0.078c0-0.043-0.042-0.078-0.093-0.078s-0.174-0.081-0.272-0.18c-0.098-0.099-0.208-0.181-0.244-0.181s-0.065-0.026-0.065-0.056-0.070-0.079-0.156-0.108c-0.086-0.030-0.156-0.075-0.156-0.101s-0.032-0.047-0.072-0.047c-0.040 0-0.085-0.033-0.1-0.073-0.027-0.071-0.225-0.2-0.41-0.268-0.050-0.018-0.091-0.063-0.091-0.098s-0.090-0.080-0.2-0.097c-0.115-0.019-0.38-0.152-0.629-0.318-0.458-0.305-0.609-0.34-0.843-0.195zM39.599 35.639c-0.018 0.173-0.033 2.188-0.033 4.479v4.164h5.796l0.033-0.324c0.018-0.178 0.044-1.502 0.059-2.941 0.030-2.922 0.067-2.601-0.32-2.798-0.083-0.043-0.182-0.106-0.22-0.143s-0.114-0.065-0.168-0.065c-0.055 0-0.1-0.020-0.1-0.044s-0.089-0.070-0.198-0.103c-0.323-0.097-1.256-0.574-2.419-1.238-1.166-0.665-2.176-1.221-2.312-1.271-0.069-0.026-0.089 0.023-0.117 0.283zM55.477 36.954c-0.442 0.187-0.856 0.361-0.92 0.386l-0.117 0.047v6.895h2.228l-0.027-1.361c-0.075-3.728-0.135-6.026-0.162-6.161-0.041-0.205-0.081-0.197-1.002 0.192zM57.136 40.447v3.835h2.28v-6.675l-0.687-0.34c-0.614-0.304-1.446-0.655-1.554-0.655-0.022 0-0.040 1.726-0.040 3.835zM49.904 37.029c-0.073 0.118-0.055 7.199 0.019 7.227 0.038 0.014 0.417 0.027 0.842 0.027h0.773l-0.001-2.656c-0.001-3.163-0.053-3.797-0.323-3.917-0.021-0.010-0.039-0.049-0.039-0.087s-0.070-0.084-0.156-0.104c-0.086-0.019-0.155-0.057-0.155-0.084s-0.070-0.075-0.156-0.105c-0.086-0.030-0.156-0.075-0.156-0.101s-0.047-0.047-0.104-0.047c-0.057 0-0.104-0.032-0.104-0.071s-0.073-0.086-0.162-0.104c-0.217-0.043-0.241-0.041-0.28 0.022zM6.255 44.892l-3.381 0.013v1.243h25.667c14.117 0 27.259-0.015 29.204-0.034l3.537-0.034v-1.175l-4.056-0.001c-2.23-0.001-13.851-0.007-25.823-0.013s-23.289-0.006-25.149 0.002zM16.012 46.925c-7.554 0.021-14.101 0.041-14.55 0.045l-0.816 0.008v2.125h62.71v-2.111l-0.79-0.033c-1.265-0.053-31.561-0.075-46.553-0.034z"></path>
</svg>
